<svg width="47" height="25" viewBox="0 0 47 25" fill="none" xmlns="http://www.w3.org/2000/svg">
<path fill-rule="evenodd" clip-rule="evenodd" d="M23.5002 21.875C15.3542 21.875 8.19156 18.1431 4.09647 12.5C8.19156 6.85687 15.3542 3.125 23.5002 3.125C31.6457 3.125 38.8084 6.85687 42.9035 12.5C38.8084 18.1431 31.6457 21.875 23.5002 21.875ZM23.5002 0C33.6936 0 42.5461 5.06594 47 12.5C42.5461 19.9341 33.6936 25 23.5002 25C13.3063 25 4.45385 19.9341 0 12.5C4.45385 5.06594 13.3063 0 23.5002 0ZM23.5012 18.75C27.4132 18.75 30.5849 15.9519 30.5849 12.5C30.5849 9.04813 27.4132 6.25 23.5012 6.25C19.5889 6.25 16.4175 9.04813 16.4175 12.5C16.4175 15.9519 19.5889 18.75 23.5012 18.75Z" fill="black"/>
</svg>
