<svg width="53" height="34" viewBox="0 0 53 34" fill="none" xmlns="http://www.w3.org/2000/svg">
<path fill-rule="evenodd" clip-rule="evenodd" d="M26.5002 29.75C17.3144 29.75 9.23729 24.6747 4.61942 17C9.23729 9.32535 17.3144 4.25 26.5002 4.25C35.6856 4.25 43.7627 9.32535 48.3805 17C43.7627 24.6747 35.6856 29.75 26.5002 29.75ZM26.5002 0C37.9949 0 47.9775 6.88967 53 17C47.9775 27.1103 37.9949 34 26.5002 34C15.005 34 5.02242 27.1103 0 17C5.02242 6.88967 15.005 0 26.5002 0ZM26.5014 25.5C30.9128 25.5 34.4894 21.6945 34.4894 17C34.4894 12.3055 30.9128 8.5 26.5014 8.5C22.0896 8.5 18.5134 12.3055 18.5134 17C18.5134 21.6945 22.0896 25.5 26.5014 25.5Z" fill="white"/>
</svg>
